<svg width="135" height="45" viewBox="0 0 135 45" fill="none" xmlns="http://www.w3.org/2000/svg">
<g filter="url(#filter0_d)">
<path d="M40 20.5C40 31.8218 31.2696 41 20.5 41C9.73045 41 1 31.8218 1 20.5C1 9.17816 9.73045 0 20.5 0C31.2696 0 40 9.17816 40 20.5Z" fill="url(#paint0_linear)"/>
</g>
<g filter="url(#filter1_d)">
<path d="M13.3863 23.6981C12.9111 23.7562 12.6311 23.8047 12.3896 23.8502C12.1481 23.8958 11.1318 24.1326 10.7242 24.27C10.3166 24.4075 10.0207 24.536 9.67554 24.6859L9.67549 24.6859C9.33027 24.8358 8.71394 25.2343 8.71394 25.2343C8.71394 25.2343 8.3771 25.4655 8.18828 25.7655C7.99946 26.0654 8.02988 26.238 8.02988 26.238C8.02988 26.238 8.00859 26.3891 8.1213 26.6132C8.23401 26.8372 8.46792 26.953 8.46792 26.953C8.46792 26.953 8.80787 27.145 9.15721 27.2425C9.50655 27.34 10.3432 27.4512 10.3432 27.4512L12.4969 27.5538L14.5727 27.5671L17.3392 27.5421L19.9941 27.526L22.691 27.4977L24.9178 27.4659L27.0327 27.4479L29.5056 27.4659L31.254 27.4779L32.9327 27.4913L30.4543 26.6031C30.4543 26.6031 29.0694 26.133 28.119 25.8358C27.1687 25.5386 25.1411 24.9998 25.1411 24.9998L22.9214 24.4852C22.9214 24.4852 21.7602 24.2588 21.1537 24.1395C20.5471 24.0203 19.6134 23.8902 19.6134 23.8902C19.6134 23.8902 18.4018 23.7279 17.8459 23.6682C17.2901 23.6084 16.3646 23.5643 15.8523 23.5732C15.34 23.582 14.4684 23.6118 14.4684 23.6118C14.4684 23.6118 13.8616 23.6399 13.3863 23.6981Z" fill="#EDF6F9"/>
</g>
<g filter="url(#filter2_d)">
<path d="M13.3863 18.3486C12.9111 18.4068 12.6311 18.4552 12.3896 18.5008C12.1481 18.5463 11.1318 18.7831 10.7242 18.9205C10.3166 19.058 10.0207 19.1865 9.67554 19.3364L9.67549 19.3364C9.33027 19.4864 8.71394 19.8848 8.71394 19.8848C8.71394 19.8848 8.3771 20.116 8.18828 20.416C7.99946 20.716 8.02988 20.8886 8.02988 20.8886C8.02988 20.8886 8.00859 21.0397 8.1213 21.2637C8.23401 21.4878 8.46792 21.6035 8.46792 21.6035C8.46792 21.6035 8.80787 21.7956 9.15721 21.893C9.50655 21.9905 10.3432 22.1017 10.3432 22.1017L12.4969 22.2043L14.5727 22.2177L17.3392 22.1926L19.9941 22.1765L22.691 22.1482L24.9178 22.1164L27.0327 22.0984L29.5056 22.1164L31.254 22.1284L32.9327 22.1418L30.4543 21.2536C30.4543 21.2536 29.0694 20.7836 28.119 20.4863C27.1687 20.1891 25.1411 19.6504 25.1411 19.6504L22.9214 19.1358C22.9214 19.1358 21.7602 18.9093 21.1537 18.7901C20.5471 18.6708 19.6134 18.5408 19.6134 18.5408C19.6134 18.5408 18.4018 18.3784 17.8459 18.3187C17.2901 18.2589 16.3646 18.2148 15.8523 18.2237C15.34 18.2325 14.4684 18.2623 14.4684 18.2623C14.4684 18.2623 13.8616 18.2904 13.3863 18.3486Z" fill="#EDF6F9"/>
</g>
<g filter="url(#filter3_d)">
<path d="M13.3863 13.0043C12.9111 13.0625 12.6311 13.111 12.3896 13.1565C12.1481 13.202 11.1318 13.4388 10.7242 13.5763C10.3166 13.7137 10.0207 13.8422 9.67554 13.9922L9.67549 13.9922C9.33027 14.1421 8.71394 14.5406 8.71394 14.5406C8.71394 14.5406 8.3771 14.7717 8.18828 15.0717C7.99946 15.3717 8.02988 15.5443 8.02988 15.5443C8.02988 15.5443 8.00859 15.6954 8.1213 15.9194C8.23401 16.1435 8.46792 16.2592 8.46792 16.2592C8.46792 16.2592 8.80787 16.4513 9.15721 16.5488C9.50655 16.6462 10.3432 16.7574 10.3432 16.7574L12.4969 16.86L14.5727 16.8734L17.3392 16.8484L19.9941 16.8323L22.691 16.8039L24.9178 16.7722L27.0327 16.7541L29.5056 16.7721L31.254 16.7841L32.9327 16.7976L30.4543 15.9094C30.4543 15.9094 29.0694 15.4393 28.119 15.1421C27.1687 14.8448 25.1411 14.3061 25.1411 14.3061L22.9214 13.7915C22.9214 13.7915 21.7602 13.565 21.1537 13.4458C20.5471 13.3266 19.6134 13.1965 19.6134 13.1965C19.6134 13.1965 18.4018 13.0342 17.8459 12.9744C17.2901 12.9147 16.3646 12.8706 15.8523 12.8794C15.34 12.8883 14.4684 12.918 14.4684 12.918C14.4684 12.918 13.8616 12.9462 13.3863 13.0043Z" fill="#EDF6F9"/>
</g>
<g filter="url(#filter4_d)">
<path d="M60.232 30L58.432 25.704H50.296L48.496 30H46.12L53.224 13.248H55.504L62.608 30H60.232ZM51.16 23.592V23.712H57.568V23.592L54.4 15.936H54.352L51.16 23.592ZM73.9424 23.88V24.648H64.6784C64.8064 25.768 65.2224 26.64 65.9264 27.264C66.6304 27.888 67.6944 28.2 69.1184 28.2C70.5584 28.2 71.8864 27.8 73.1024 27H73.2224V29.112C71.8784 29.864 70.2944 30.24 68.4704 30.24C66.6624 30.24 65.2064 29.688 64.1024 28.584C63.0144 27.464 62.4704 25.96 62.4704 24.072C62.4704 22.168 62.9584 20.6 63.9344 19.368C64.9104 18.136 66.3344 17.52 68.2064 17.52C70.0784 17.52 71.5024 18.136 72.4784 19.368C73.4544 20.6 73.9424 22.104 73.9424 23.88ZM64.6784 22.872H71.7584C71.6944 21.72 71.3024 20.848 70.5824 20.256C69.8784 19.664 69.0864 19.368 68.2064 19.368C67.3264 19.368 66.5344 19.664 65.8304 20.256C65.1264 20.848 64.7424 21.72 64.6784 22.872ZM82.1819 17.52H82.3739V19.608H82.1819C81.2379 19.608 80.3579 19.792 79.5419 20.16C78.7259 20.528 78.0859 21.04 77.6219 21.696V30H75.4379V17.76H77.3579L77.6219 19.296V19.656H77.6699C78.8219 18.232 80.3259 17.52 82.1819 17.52ZM82.5351 23.88C82.5351 21.976 83.0951 20.44 84.2151 19.272C85.3351 18.104 86.8151 17.52 88.6551 17.52C90.5111 17.52 91.9991 18.104 93.1191 19.272C94.2551 20.44 94.8231 21.976 94.8231 23.88C94.8231 25.784 94.2551 27.32 93.1191 28.488C91.9991 29.656 90.5111 30.24 88.6551 30.24C86.8151 30.24 85.3351 29.656 84.2151 28.488C83.0951 27.32 82.5351 25.784 82.5351 23.88ZM85.8951 27.168C86.6951 27.888 87.6231 28.248 88.6791 28.248C89.7351 28.248 90.6551 27.888 91.4391 27.168C92.2391 26.432 92.6391 25.336 92.6391 23.88C92.6391 22.408 92.2391 21.312 91.4391 20.592C90.6551 19.872 89.7351 19.512 88.6791 19.512C87.6231 19.512 86.6951 19.872 85.8951 20.592C85.1111 21.312 84.7191 22.408 84.7191 23.88C84.7191 25.336 85.1111 26.432 85.8951 27.168Z" fill="url(#paint1_linear)"/>
</g>
<g filter="url(#filter5_d)">
<path d="M108.232 14.248C109.608 14.248 110.848 14.496 111.952 14.992C113.072 15.472 113.968 16.12 114.64 16.936C116.016 18.584 116.704 20.48 116.704 22.624C116.704 24.336 116.256 25.896 115.36 27.304C114.384 28.856 113.032 29.928 111.304 30.52C110.36 30.84 109.336 31 108.232 31H102.328V14.248H108.232ZM107.968 28.96C109.952 28.96 111.544 28.376 112.744 27.208C113.944 26.04 114.544 24.512 114.544 22.624C114.544 20.736 113.944 19.208 112.744 18.04C111.544 16.872 109.952 16.288 107.968 16.288H104.512V28.96H107.968ZM131.584 26.296C131.584 29.432 129.528 31 125.416 31H118.528V14.248H125.272C126.984 14.248 128.304 14.64 129.232 15.424C130.176 16.208 130.648 17.264 130.648 18.592C130.648 20.352 129.88 21.576 128.344 22.264V22.336C130.504 23.024 131.584 24.344 131.584 26.296ZM120.712 28.96H125.2C126.752 28.96 127.848 28.72 128.488 28.24C129.144 27.76 129.472 27.08 129.472 26.2C129.472 24.376 128.056 23.464 125.224 23.464H120.712V28.96ZM120.712 21.496H124.696C126.12 21.496 127.12 21.256 127.696 20.776C128.272 20.296 128.56 19.656 128.56 18.856C128.56 18.04 128.248 17.408 127.624 16.96C127.016 16.512 126.176 16.288 125.104 16.288H120.712V21.496Z" fill="#F0FBFF"/>
</g>
<defs>
<filter id="filter0_d" x="0" y="0" width="43" height="45" filterUnits="userSpaceOnUse" color-interpolation-filters="sRGB">
<feFlood flood-opacity="0" result="BackgroundImageFix"/>
<feColorMatrix in="SourceAlpha" type="matrix" values="0 0 0 0 0 0 0 0 0 0 0 0 0 0 0 0 0 0 127 0"/>
<feOffset dx="1" dy="2"/>
<feGaussianBlur stdDeviation="1"/>
<feColorMatrix type="matrix" values="0 0 0 0 0 0 0 0 0 0 0 0 0 0 0 0 0 0 0.3 0"/>
<feBlend mode="normal" in2="BackgroundImageFix" result="effect1_dropShadow"/>
<feBlend mode="normal" in="SourceGraphic" in2="effect1_dropShadow" result="shape"/>
</filter>
<filter id="filter1_d" x="7.82832" y="23.372" width="26.9046" height="5.99512" filterUnits="userSpaceOnUse" color-interpolation-filters="sRGB">
<feFlood flood-opacity="0" result="BackgroundImageFix"/>
<feColorMatrix in="SourceAlpha" type="matrix" values="0 0 0 0 0 0 0 0 0 0 0 0 0 0 0 0 0 0 127 0"/>
<feOffset dx="0.8" dy="0.8"/>
<feGaussianBlur stdDeviation="0.5"/>
<feColorMatrix type="matrix" values="0 0 0 0 0 0 0 0 0 0 0 0 0 0 0 0 0 0 0.4 0"/>
<feBlend mode="normal" in2="BackgroundImageFix" result="effect1_dropShadow"/>
<feBlend mode="normal" in="SourceGraphic" in2="effect1_dropShadow" result="shape"/>
</filter>
<filter id="filter2_d" x="7.82832" y="18.0225" width="26.9046" height="5.99512" filterUnits="userSpaceOnUse" color-interpolation-filters="sRGB">
<feFlood flood-opacity="0" result="BackgroundImageFix"/>
<feColorMatrix in="SourceAlpha" type="matrix" values="0 0 0 0 0 0 0 0 0 0 0 0 0 0 0 0 0 0 127 0"/>
<feOffset dx="0.8" dy="0.8"/>
<feGaussianBlur stdDeviation="0.5"/>
<feColorMatrix type="matrix" values="0 0 0 0 0 0 0 0 0 0 0 0 0 0 0 0 0 0 0.4 0"/>
<feBlend mode="normal" in2="BackgroundImageFix" result="effect1_dropShadow"/>
<feBlend mode="normal" in="SourceGraphic" in2="effect1_dropShadow" result="shape"/>
</filter>
<filter id="filter3_d" x="7.82832" y="12.6783" width="26.9046" height="5.99512" filterUnits="userSpaceOnUse" color-interpolation-filters="sRGB">
<feFlood flood-opacity="0" result="BackgroundImageFix"/>
<feColorMatrix in="SourceAlpha" type="matrix" values="0 0 0 0 0 0 0 0 0 0 0 0 0 0 0 0 0 0 127 0"/>
<feOffset dx="0.8" dy="0.8"/>
<feGaussianBlur stdDeviation="0.5"/>
<feColorMatrix type="matrix" values="0 0 0 0 0 0 0 0 0 0 0 0 0 0 0 0 0 0 0.4 0"/>
<feBlend mode="normal" in2="BackgroundImageFix" result="effect1_dropShadow"/>
<feBlend mode="normal" in="SourceGraphic" in2="effect1_dropShadow" result="shape"/>
</filter>
<filter id="filter4_d" x="46.1201" y="13.248" width="51.2031" height="19.492" filterUnits="userSpaceOnUse" color-interpolation-filters="sRGB">
<feFlood flood-opacity="0" result="BackgroundImageFix"/>
<feColorMatrix in="SourceAlpha" type="matrix" values="0 0 0 0 0 0 0 0 0 0 0 0 0 0 0 0 0 0 127 0"/>
<feOffset dx="1.5" dy="1.5"/>
<feGaussianBlur stdDeviation="0.5"/>
<feColorMatrix type="matrix" values="0 0 0 0 0 0 0 0 0 0 0 0 0 0 0 0 0 0 0.25 0"/>
<feBlend mode="normal" in2="BackgroundImageFix" result="effect1_dropShadow"/>
<feBlend mode="normal" in="SourceGraphic" in2="effect1_dropShadow" result="shape"/>
</filter>
<filter id="filter5_d" x="102.328" y="14.248" width="31.756" height="19.252" filterUnits="userSpaceOnUse" color-interpolation-filters="sRGB">
<feFlood flood-opacity="0" result="BackgroundImageFix"/>
<feColorMatrix in="SourceAlpha" type="matrix" values="0 0 0 0 0 0 0 0 0 0 0 0 0 0 0 0 0 0 127 0"/>
<feOffset dx="1.5" dy="1.5"/>
<feGaussianBlur stdDeviation="0.5"/>
<feColorMatrix type="matrix" values="0 0 0 0 0 0 0 0 0 0 0 0 0 0 0 0 0 0 0.25 0"/>
<feBlend mode="normal" in2="BackgroundImageFix" result="effect1_dropShadow"/>
<feBlend mode="normal" in="SourceGraphic" in2="effect1_dropShadow" result="shape"/>
</filter>
<linearGradient id="paint0_linear" x1="-33.5764" y1="-15.1265" x2="58.708" y2="38.4236" gradientUnits="userSpaceOnUse">
<stop offset="0.399974" stop-color="#0073BD"/>
<stop offset="0.543165" stop-color="#007AC3" stop-opacity="0.9"/>
<stop offset="0.776042" stop-color="#5AB8DC"/>
<stop offset="0.90625" stop-color="#00ADEF"/>
</linearGradient>
<linearGradient id="paint1_linear" x1="1.6713" y1="-5.43712" x2="82.0287" y2="73.6282" gradientUnits="userSpaceOnUse">
<stop offset="0.399974" stop-color="#0073BD"/>
<stop offset="0.543165" stop-color="#007AC3" stop-opacity="0.9"/>
<stop offset="0.776042" stop-color="#5AB8DC"/>
<stop offset="0.90625" stop-color="#00ADEF"/>
</linearGradient>
</defs>
</svg>
