<svg width="54" height="11" viewBox="0 0 54 11" fill="none" xmlns="http://www.w3.org/2000/svg">
<path d="M4.15683 10.0724H2.18619V5.19502H0.84375V3.60705H2.18614V2.4771C2.18614 1.13811 2.77988 0.177795 4.74519 0.177795C5.16085 0.177795 5.81343 0.260976 5.81343 0.260976V1.73549H5.12801C4.42962 1.73549 4.15694 1.9464 4.15694 2.52949V3.60705H5.78728L5.6421 5.19502H4.15689L4.15683 10.0724ZM8.67853 3.48015C8.64981 3.48015 8.62027 3.48119 8.59103 3.48192C6.76374 3.48192 5.9277 4.84656 5.9277 6.78371C5.9277 9.22398 7.01215 10.2007 8.60531 10.2007C9.51681 10.2007 10.1157 9.81975 10.4797 9.10892V10.073H12.354V3.60773H10.4797V4.602C10.1825 3.96231 9.56686 3.48773 8.67853 3.48015ZM9.15512 5.00788C9.92259 5.00788 10.3832 5.53937 10.3832 6.4434L10.385 7.36675C10.385 7.97607 10.0045 8.68892 9.15512 8.68892C7.84924 8.68892 7.88412 7.28897 7.88412 6.8227C7.88412 5.25426 8.57989 5.00788 9.15512 5.00788ZM13.111 6.84072C13.111 6.05507 13.0731 3.48436 16.4466 3.48436C17.8007 3.48436 18.3662 3.91184 18.3662 3.91184L17.9117 5.31132C17.9117 5.31132 17.347 5.00259 16.6112 5.00259C15.6687 5.00259 15.0673 5.54503 15.0673 6.49943L15.0684 7.18377C15.0684 8.10084 15.6486 8.71301 16.6131 8.71301C17.2834 8.71301 17.9013 8.40137 17.9013 8.40137L18.3546 9.77162C18.3546 9.77162 17.8376 10.2018 16.456 10.2018C13.244 10.2018 13.1111 7.89538 13.1111 6.84072H13.111ZM29.3562 3.48192C31.1836 3.48192 32.0328 4.84656 32.0328 6.78371C32.0328 9.22398 30.9483 10.2007 29.3552 10.2007C28.4436 10.2007 27.7698 9.8198 27.4058 9.10892V10.073L25.5551 10.0723V0.374376L27.5201 0.204224V4.51441C27.8037 3.76033 28.7358 3.48192 29.3563 3.48192H29.3562ZM28.8053 5.00788C28.0379 5.00788 27.5201 5.53937 27.5201 6.4434L27.5183 7.36675C27.5171 7.97607 27.8768 8.68892 28.8053 8.68892C30.1112 8.68892 30.0763 7.28897 30.0763 6.8227C30.0763 5.25426 29.3806 5.00788 28.8053 5.00788ZM21.7757 3.48727C19.7031 3.48727 18.6089 4.60917 18.6089 6.60291V6.97333C18.6089 9.56102 20.1455 10.2272 21.9774 10.2272C23.758 10.2272 24.564 9.73278 24.564 9.73278L24.1963 8.41601C24.1963 8.41601 23.2482 8.81649 22.213 8.81649C21.1399 8.81649 20.6783 8.54494 20.56 7.52101H24.7211V6.46464C24.7211 4.30194 23.4931 3.48721 21.7756 3.48721L21.7757 3.48727ZM21.8256 4.8058C22.5431 4.8058 23.0079 5.24258 22.9824 6.25554H20.5636C20.6056 5.18941 21.1069 4.80585 21.8256 4.80585V4.8058ZM35.951 3.47839C33.8227 3.47839 32.7022 4.66919 32.7022 6.80318C32.7022 9.73112 34.6336 10.2024 35.9546 10.2024C37.8884 10.2024 39.1749 9.16879 39.1749 6.82976C39.1749 4.39525 37.7283 3.47839 35.951 3.47839ZM35.9243 5.01318C36.8601 5.01318 37.231 5.70859 37.231 6.50015V7.18071C37.231 8.13962 36.7121 8.69427 35.9207 8.69427C35.1806 8.69427 34.6604 8.17545 34.6604 7.18071V6.50015C34.6604 5.43926 35.2794 5.01318 35.9243 5.01318ZM43.0896 3.47839C40.9612 3.47839 39.8408 4.66919 39.8408 6.80318C39.8408 9.73112 41.7722 10.2024 43.0932 10.2024C45.0269 10.2024 46.3135 9.16879 46.3135 6.82976C46.3135 4.39525 44.8669 3.47839 43.0896 3.47839ZM43.0628 5.01318C43.9987 5.01318 44.3695 5.70859 44.3695 6.50015V7.18071C44.3695 8.13962 43.8506 8.69427 43.0593 8.69427C42.3192 8.69427 41.799 8.17545 41.799 7.18071V6.50015C41.799 5.43926 42.418 5.01318 43.0628 5.01318ZM47.0561 10.0724V0.374376L49.0268 0.204276V6.70447L50.982 3.60711H53.0633L51.0237 6.81507L53.1418 10.0724H51.0547L49.0268 6.90951V10.0724H47.0561Z" fill="#1877F2"/>
</svg>
