<svg width="20" height="20" viewBox="0 0 20 20" fill="none" xmlns="http://www.w3.org/2000/svg">
<path d="M14.9997 6.66665H14.1663V4.99998C14.1663 2.69998 12.2997 0.833313 9.99967 0.833313C7.69967 0.833313 5.83301 2.69998 5.83301 4.99998V6.66665H4.99967C4.08301 6.66665 3.33301 7.41665 3.33301 8.33331V16.6666C3.33301 17.5833 4.08301 18.3333 4.99967 18.3333H14.9997C15.9163 18.3333 16.6663 17.5833 16.6663 16.6666V8.33331C16.6663 7.41665 15.9163 6.66665 14.9997 6.66665ZM7.49967 4.99998C7.49967 3.61665 8.61634 2.49998 9.99967 2.49998C11.383 2.49998 12.4997 3.61665 12.4997 4.99998V6.66665H7.49967V4.99998ZM14.9997 16.6666H4.99967V8.33331H14.9997V16.6666ZM9.99967 14.1666C10.9163 14.1666 11.6663 13.4166 11.6663 12.5C11.6663 11.5833 10.9163 10.8333 9.99967 10.8333C9.08301 10.8333 8.33301 11.5833 8.33301 12.5C8.33301 13.4166 9.08301 14.1666 9.99967 14.1666Z" fill="#5C5C5C"/>
</svg>
